<svg width="900" height="700" viewBox="0 0 900 700" fill="none" xmlns="http://www.w3.org/2000/svg">
  <rect width="900" height="700" fill="#2C3136"/>
  <rect x="82" y="64" width="736" height="572" rx="38" fill="#F7D046"/>
  <rect x="118" y="108" width="664" height="484" rx="24" fill="#FFF6D6"/>
  <rect x="462" y="188" width="214" height="290" rx="20" fill="#2C3136"/>
  <circle cx="569" cy="165" r="42" fill="#F0C7A8"/>
  <path d="M526 205C526 182.909 543.909 165 566 165H572C594.091 165 612 182.909 612 205V256H526V205Z" fill="#111827"/>
  <rect x="240" y="234" width="184" height="106" rx="22" fill="#CBD5E1"/>
  <rect x="256" y="248" width="152" height="78" rx="18" fill="#94A3B8"/>
  <rect x="196" y="364" width="324" height="86" rx="28" fill="#64748B"/>
  <rect x="216" y="390" width="154" height="18" rx="9" fill="#E2E8F0"/>
  <rect x="216" y="418" width="106" height="12" rx="6" fill="#CBD5E1"/>
  <path d="M616 308L726 266L746 308L642 356L616 308Z" fill="#111827"/>
  <circle cx="720" cy="287" r="25" fill="#111827"/>
  <circle cx="720" cy="287" r="12" fill="#F7D046"/>
  <path d="M610 332L536 378L562 418L638 372L610 332Z" fill="#E5E7EB"/>
</svg>
